<?xml version="1.0" encoding="UTF-8"?>
<svg version="1.1" viewBox="0 0 1000 750" xmlns="http://www.w3.org/2000/svg">
<rect width="1e3" height="750" fill="#fff"/>
<g transform="matrix(.834 0 0 .834 82.495 234.93)">
<svg width="1e3" height="335" data-background-color="#ffffff" viewBox="0 0 396 133" xmlns="http://www.w3.org/2000/svg" xmlns:xlink="http://www.w3.org/1999/xlink">
<g transform="translate(.24 .17772)">
<svg width="395.52" height="132.64" viewBox="0 0 395.52 132.64455148032553">
<svg width="395.52" height="132.64" viewBox="0 0 397.4975999999999 133.30777423772713">
<rect class="rect-o-0" y="73.26" width="397.5" height="4.083" rx="1%" fill="#ea9937" stroke="transparent" stroke-width="0" data-fill-palette-color="primary" data-palette-color="#ea9937"/>
<g transform="translate(.9888 88.032)">
<svg width="395.52" height="45.276" viewBox="0 0 395.52 45.27605158414265">
<svg width="395.52" height="45.276" viewBox="0 0 395.52 45.27605158414265">
<svg width="395.52" height="45.276" viewBox="0 0 395.52 45.27605158414265">
<g>
<svg width="395.52" height="45.276" data-palette-color="#ea9937" viewBox="3.049999952316284 -35.45000076293945 314.0299987792969 35.95000076293945">
<path class="undefined-text-0" d="m27.05-25.95q0 5.2-4.5 7.9 2.45 0.9 4.1 3.1t1.65 6.23q0 4.02-2.97 6.37-2.98 2.35-8.53 2.35h-11.8q-0.85 0-1.4-0.58-0.55-0.57-0.55-1.52v-32q0-0.55 0.18-0.73 0.17-0.17 0.72-0.17h11.4q11.7 0 11.7 9.05zm-13.35-0.95h-1.05v6.55h0.25q4.8 0 4.8-3.2 0-1.75-0.92-2.55-0.93-0.8-3.08-0.8zm0 12.45h-1.05v6.5h0.9q2.15 0 3.15-0.8t1-2.55-0.92-2.45q-0.93-0.7-3.08-0.7zm42 14.55q-4.35 0-4.7-1.4l-1.65-6.45h-7.95l-1.45 6.2q-0.3 1.55-4.8 1.55-2.4 0-3.55-0.28-1.15-0.27-1.15-0.42l8.85-33.85q0-0.4 6.85-0.4t6.85 0.4l8.65 33.9q0 0.35-2.3 0.55t-3.65 0.2zm-10.35-24.55-2.7 10.35h5.25l-2.25-10.35h-0.3zm29.6 11.7v12.05q0 0.75-4.7 0.75l-2.8-0.15q-2.5-0.2-2.5-0.7v-33.55q0-0.85 5-0.85t5 0.85v12.8l6.1-12.8q0.35-0.7 4-0.7 6.65 0 7 1.15 0 0.1-0.05 0.2l-8.7 15.7 10.1 13.95q0 0.1-0.95 0.85-2.3 2-5.4 3.15-0.95 0.35-1.9 0.35l-1.2-0.1q-1.6-0.4-2.5-2.05l-5.7-10.9h-0.8zm30.79-8.35h6.45q0.95 0 0.95 3.5 0 1.05-0.22 2.47-0.23 1.43-0.83 1.43h-6.35v5h9.2q0.85 0 1.15 2.2 0.15 0.95 0.15 2.02 0 1.08-0.3 2.78t-1 1.7h-17.1q-1.9 0-1.9-1.55v-32.15q0-1.3 1.15-1.3h17.9q1.05 0 1.05 4.42 0 4.43-1.05 4.43h-9.25v5.05zm24.4 9.05v11.35q0 0.8-4.75 0.8-4.8 0-4.8-0.75v-32.6q0-1.75 1.85-1.75h9.55q13.15 0 13.15 10.25 0 3.1-1.2 5.62-1.2 2.53-3.4 4.03l6.3 10.5q-0.4 1.2-2.6 2.75-3 2.15-4.95 2.15t-2.9-1.4l-4.7-10.95h-1.55zm1.05-14.1h-1.05v7.5h0.25q4.75 0 4.75-3.95 0-1.8-0.92-2.68-0.93-0.87-3.03-0.87zm32.1 3 4.2-10.2q0.65-1.75 6.4-1.75 1.45 0 3.42 0.2 1.98 0.2 1.83 0.5l-10.4 20.9v12.2q0 0.85-2.75 1.2-1.4 0.2-2.75 0.2t-2.7-0.15q-2.75-0.35-2.75-1.25v-11.9l-10.75-21.1q-0.2-0.3 2.05-0.58 2.25-0.27 3.8-0.27 6.15 0 6.75 1.8l3.65 10.2zm18.85 10.95q0.95 0.75 3.27 2.05 2.33 1.3 4.45 1.3 2.13 0 2.13-1.65 0-0.75-0.6-1.33-0.6-0.57-2.2-1.32t-2.4-1.18q-0.8-0.42-2.13-1.4-1.32-0.97-2.02-2.02-2-2.85-2-7.25t3.27-7.43q3.28-3.02 8.58-3.02 3.6 0 6.65 0.77 3.05 0.78 3.15 2.03 0 0.15 0 0.3 0 1.75-1.1 4.42-1.1 2.68-1.55 2.98-3.2-1.65-5.73-1.65-2.52 0-2.52 1.8 0 1.1 1.85 1.95 0.4 0.2 1.15 0.55t1.72 0.82q0.98 0.48 2.1 1.2 1.13 0.73 2.43 1.93 2.65 2.5 2.65 6.6 0 5.35-2.95 8.75t-9.1 3.5q-3 0-5.43-0.5-2.42-0.5-4.22-1.95t-1.8-3.5 0.75-4.08q0.75-2.02 1.6-2.67zm40.29-13.7v25.1q0 1-4.95 1t-4.95-1v-25.1h-6q-0.85 0-1.2-2.3-0.15-1.1-0.15-2.25t0.15-2.25q0.35-2.3 1.2-2.3h21.75q0.85 0 1.2 2.3 0.15 1.1 0.15 2.25t-0.15 2.25q-0.35 2.3-1.2 2.3h-5.85zm24.93 26.4q-7.03 0-11.45-4.6-4.43-4.6-4.43-13.43 0-8.82 4.48-13.37 4.47-4.55 11.55-4.55 7.07 0 11.42 4.47 4.35 4.48 4.35 13.55 0 9.08-4.45 13.5-4.45 4.43-11.47 4.43zm0.02-26.35q-2.4 0-4.02 2.2-1.63 2.2-1.63 6.17 0 3.98 1.55 6.1 1.55 2.13 4.08 2.13 2.52 0 4.1-2.15 1.57-2.15 1.57-6.15t-1.62-6.15q-1.63-2.15-4.03-2.15zm29.45 13.8v11.35q0 0.8-4.75 0.8-4.8 0-4.8-0.75v-32.6q0-1.75 1.85-1.75h9.55q13.15 0 13.15 10.25 0 3.1-1.2 5.62-1.2 2.53-3.4 4.03l6.3 10.5q-0.4 1.2-2.6 2.75-3 2.15-4.95 2.15t-2.9-1.4l-4.7-10.95h-1.55zm1.05-14.1h-1.05v7.5h0.25q4.75 0 4.75-3.95 0-1.8-0.93-2.68-0.92-0.87-3.02-0.87zm28.7 5.05h6.45q0.95 0 0.95 3.5 0 1.05-0.23 2.47-0.22 1.43-0.82 1.43h-6.35v5h9.2q0.85 0 1.15 2.2 0.15 0.95 0.15 2.02 0 1.08-0.3 2.78t-1 1.7h-17.1q-1.9 0-1.9-1.55v-32.15q0-1.3 1.15-1.3h17.9q1.05 0 1.05 4.42 0 4.43-1.05 4.43h-9.25v5.05z" fill="#ea9937" data-fill-palette-color="primary"/>
</svg>
</g>
</svg>
</svg>
</svg>
</g>
<g transform="translate(164.33)">
<svg width="68.844" height="62.572" viewBox="0 0 68.84394970587533 62.57150328928515">
<svg class="icon-icon-0" width="68.844" height="62.572" enable-background="new 0 0 100 100" fill="#ea9937" data-fill-palette-color="accent" version="1.1" viewBox="4.5 8.600000381469727 90 81.80000305175781" xml:space="preserve" xmlns="http://www.w3.org/2000/svg" xmlns:a="http://ns.adobe.com/AdobeSVGViewerExtensions/3.0/" xmlns:graph="http://ns.adobe.com/Graphs/1.0/" xmlns:i="http://ns.adobe.com/AdobeIllustrator/10.0/" xmlns:x="http://ns.adobe.com/Extensibility/1.0/" xmlns:xlink="http://www.w3.org/1999/xlink"><rect x="54.7" y="65.1" width="3" height="5" data-fill-palette-color="accent"/><path d="m81.3 13.7v-5.1h-63.1v5.1l-13.7 20.7v4.2c0 3.5 3.7 6.4 8.5 6.4s9.4-2.9 9.4-6.4v-4.2l9.7-20.6h11.2l-3 20.6v4.2c0 3.5 3.6 6.4 8.5 6.4s9.4-2.9 9.4-6.4v-4.2l-3.2-20.6h12.1l9.2 20.6v4.2c0 0.3 0 0.5 0.1 0.8 0.6 3.1 4.8 5.6 9.3 5.6 4.9 0 8.5-2.9 8.5-6.4v-4.2l-12.9-20.7z" data-fill-palette-color="accent"/><rect x="41.6" y="65.1" width="3" height="5" data-fill-palette-color="accent"/><path d="m76.9 43.4c-1.9 2.2-5.1 3.6-8.7 3.6-3.8 0-7.3-1.5-9.4-3.7-2.2 2.2-5.6 3.7-9.5 3.7-3.6 0-6.8-1.4-8.6-3.6-2.2 2.1-5.7 3.6-9.5 3.6-3.6 0-6.8-1.4-8.7-3.6-1.1 1.1-2.6 2.1-4.2 2.7v39.2h41.3v-5.5h-8.3v-25.7h8.2v-2.3h21.9v-5.6c-1.8-0.6-3.4-1.6-4.5-2.8zm-28.3 36.3h-17.4v-25.6h17.4v25.6z" data-fill-palette-color="accent"/><path d="m61.5 53.9v36.5h4.9v-4.8h23.1v4.6h5v-36.3l-33 0.1v-0.1zm19.6 19c-9.4 3.6-14.9 4.2-16 1.6-1.1-2.4 1.2-4.8 2.1-5.4 1.5-1 2.7-1 3.9-0.9 0.9 0.1 2.2 0.4 3.3 1.3l1.1-0.5c-0.6-1.2-2.3-2.1-4.2-2.2 0 0 0.5-1.3 3.5-2.5 1.6-0.6 3.6-1.2 4.9-0.8 1 0.3 2.7 0.9 3.4 2.8l1-0.5c-0.6-1.5-1.4-2.1-2.7-2.8 0 0 0.1-0.6 3.7-0.6 3.4 0 5.5 1.9 5.7 3.1 0.3 2.5-0.8 4-9.7 7.4z" data-fill-palette-color="accent"/></svg>
</svg>
</g>
</svg>
</svg>
<rect width="395.52" height="132.64" fill="none" visibility="hidden"/>
</g>
</svg>
</g>
</svg>
