<svg xmlns="http://www.w3.org/2000/svg" version="1.1" xmlns:xlink="http://www.w3.org/1999/xlink" xmlns:svgjs="http://svgjs.dev/svgjs" width="1000" height="750" viewBox="0 0 1000 750"><rect width="1000" height="750" fill="#ffffff"></rect><g transform="matrix(0.834,0,0,0.834,82.49454545454546,234.93165909476767)"><svg viewBox="0 0 396 133" data-background-color="#ffffff" preserveAspectRatio="xMidYMid meet" height="335" width="1000" xmlns="http://www.w3.org/2000/svg" xmlns:xlink="http://www.w3.org/1999/xlink"><defs></defs><g id="tight-bounds" transform="matrix(1,0,0,1,0.2400000000000091,0.1777244050107072)"><svg viewBox="0 0 395.52 132.64455148032553" height="132.64455148032553" width="395.52"><g><svg viewBox="0 0 397.4975999999999 133.30777423772713" height="132.64455148032553" width="395.52"><g><rect width="397.4975999999999" height="4.08304105674322" x="0" y="73.2600924430632" fill="#ea9937" opacity="1" stroke-width="0" stroke="transparent" fill-opacity="1" class="rect-o-0" data-fill-palette-color="primary" rx="1%" id="o-0" data-palette-color="#ea9937"></rect></g><g transform="matrix(1,0,0,1,0.9887999999999693,88.03172265358447)"><svg viewBox="0 0 395.52 45.27605158414265" height="45.27605158414265" width="395.52"><g><svg viewBox="0 0 395.52 45.27605158414265" height="45.27605158414265" width="395.52"><g><svg viewBox="0 0 395.52 45.27605158414265" height="45.27605158414265" width="395.52"><g transform="matrix(1,0,0,1,0,0)"><svg width="395.52" viewBox="3.049999952316284 -35.45000076293945 314.0299987792969 35.95000076293945" height="45.27605158414265" data-palette-color="#ea9937"><path d="M27.05-25.95L27.05-25.95Q27.05-20.75 22.55-18.05L22.55-18.05Q25-17.15 26.65-14.95 28.3-12.75 28.3-8.72 28.3-4.7 25.33-2.35 22.35 0 16.8 0L16.8 0 5 0Q4.15 0 3.6-0.58 3.05-1.15 3.05-2.1L3.05-2.1 3.05-34.1Q3.05-34.65 3.23-34.83 3.4-35 3.95-35L3.95-35 15.35-35Q27.05-35 27.05-25.95ZM13.7-26.9L12.65-26.9 12.65-20.35 12.9-20.35Q17.7-20.35 17.7-23.55L17.7-23.55Q17.7-25.3 16.78-26.1 15.85-26.9 13.7-26.9L13.7-26.9ZM13.7-14.45L12.65-14.45 12.65-7.95 13.55-7.95Q15.7-7.95 16.7-8.75 17.7-9.55 17.7-11.3 17.7-13.05 16.78-13.75 15.85-14.45 13.7-14.45L13.7-14.45ZM55.7 0.1L55.7 0.1Q51.35 0.1 51-1.3L51-1.3 49.35-7.75 41.4-7.75 39.95-1.55Q39.65 0 35.15 0L35.15 0Q32.75 0 31.6-0.28 30.45-0.55 30.45-0.7L30.45-0.7 39.3-34.55Q39.3-34.95 46.15-34.95 53-34.95 53-34.55L53-34.55 61.65-0.65Q61.65-0.3 59.35-0.1 57.05 0.1 55.7 0.1ZM45.35-24.45L42.65-14.1 47.9-14.1 45.65-24.45 45.35-24.45ZM74.95-12.75L74.95-0.7Q74.95 0.05 70.25 0.05L70.25 0.05 67.45-0.1Q64.95-0.3 64.95-0.8L64.95-0.8 64.95-34.35Q64.95-35.2 69.95-35.2 74.95-35.2 74.95-34.35L74.95-34.35 74.95-21.55 81.05-34.35Q81.4-35.05 85.05-35.05L85.05-35.05Q91.7-35.05 92.05-33.9L92.05-33.9Q92.05-33.8 92-33.7L92-33.7 83.3-18 93.4-4.05Q93.4-3.95 92.45-3.2L92.45-3.2Q90.15-1.2 87.05-0.05L87.05-0.05Q86.1 0.3 85.15 0.3L85.15 0.3 83.95 0.2Q82.35-0.2 81.45-1.85L81.45-1.85 75.75-12.75 74.95-12.75ZM105.74-21.1L112.19-21.1Q113.14-21.1 113.14-17.6L113.14-17.6Q113.14-16.55 112.92-15.13 112.69-13.7 112.09-13.7L112.09-13.7 105.74-13.7 105.74-8.7 114.94-8.7Q115.79-8.7 116.09-6.5L116.09-6.5Q116.24-5.55 116.24-4.48 116.24-3.4 115.94-1.7 115.64 0 114.94 0L114.94 0 97.84 0Q95.94 0 95.94-1.55L95.94-1.55 95.94-33.7Q95.94-35 97.09-35L97.09-35 114.99-35Q116.04-35 116.04-30.58 116.04-26.15 114.99-26.15L114.99-26.15 105.74-26.15 105.74-21.1ZM130.14-12.05L130.14-0.7Q130.14 0.1 125.39 0.1L125.39 0.1Q120.59 0.1 120.59-0.65L120.59-0.65 120.59-33.25Q120.59-35 122.44-35L122.44-35 131.99-35Q145.14-35 145.14-24.75L145.14-24.75Q145.14-21.65 143.94-19.13 142.74-16.6 140.54-15.1L140.54-15.1 146.84-4.6Q146.44-3.4 144.24-1.85L144.24-1.85Q141.24 0.3 139.29 0.3 137.34 0.3 136.39-1.1L136.39-1.1 131.69-12.05 130.14-12.05ZM131.19-26.15L130.14-26.15 130.14-18.65 130.39-18.65Q135.14-18.65 135.14-22.6L135.14-22.6Q135.14-24.4 134.22-25.28 133.29-26.15 131.19-26.15L131.19-26.15ZM163.29-23.15L167.49-33.35Q168.14-35.1 173.89-35.1L173.89-35.1Q175.34-35.1 177.31-34.9 179.29-34.7 179.14-34.4L179.14-34.4 168.74-13.5 168.74-1.3Q168.74-0.45 165.99-0.1L165.99-0.1Q164.59 0.1 163.24 0.1 161.89 0.1 160.54-0.05L160.54-0.05Q157.79-0.4 157.79-1.3L157.79-1.3 157.79-13.2 147.04-34.3Q146.84-34.6 149.09-34.88 151.34-35.15 152.89-35.15L152.89-35.15Q159.04-35.15 159.64-33.35L159.64-33.35 163.29-23.15ZM182.14-12.2L182.14-12.2Q183.09-11.45 185.41-10.15 187.74-8.85 189.86-8.85 191.99-8.85 191.99-10.5L191.99-10.5Q191.99-11.25 191.39-11.83 190.79-12.4 189.19-13.15 187.59-13.9 186.79-14.33 185.99-14.75 184.66-15.73 183.34-16.7 182.64-17.75L182.64-17.75Q180.64-20.6 180.64-25 180.64-29.4 183.91-32.43 187.19-35.45 192.49-35.45L192.49-35.45Q196.09-35.45 199.14-34.68 202.19-33.9 202.29-32.65L202.29-32.65Q202.29-32.5 202.29-32.35L202.29-32.35Q202.29-30.6 201.19-27.93 200.09-25.25 199.64-24.95L199.64-24.95Q196.44-26.6 193.91-26.6 191.39-26.6 191.39-24.8L191.39-24.8Q191.39-23.7 193.24-22.85L193.24-22.85Q193.64-22.65 194.39-22.3 195.14-21.95 196.11-21.48 197.09-21 198.21-20.28 199.34-19.55 200.64-18.35L200.64-18.35Q203.29-15.85 203.29-11.75L203.29-11.75Q203.29-6.4 200.34-3 197.39 0.4 191.24 0.5L191.24 0.5Q188.24 0.5 185.81 0 183.39-0.5 181.59-1.95 179.79-3.4 179.79-5.45 179.79-7.5 180.54-9.53 181.29-11.55 182.14-12.2ZM222.43-25.9L222.43-0.8Q222.43 0.2 217.48 0.2 212.53 0.2 212.53-0.8L212.53-0.8 212.53-25.9 206.53-25.9Q205.68-25.9 205.33-28.2L205.33-28.2Q205.18-29.3 205.18-30.45 205.18-31.6 205.33-32.7L205.33-32.7Q205.68-35 206.53-35L206.53-35 228.28-35Q229.13-35 229.48-32.7L229.48-32.7Q229.63-31.6 229.63-30.45 229.63-29.3 229.48-28.2L229.48-28.2Q229.13-25.9 228.28-25.9L228.28-25.9 222.43-25.9ZM247.36 0.5Q240.33 0.5 235.91-4.1 231.48-8.7 231.48-17.53 231.48-26.35 235.96-30.9 240.43-35.45 247.51-35.45 254.58-35.45 258.93-30.98 263.28-26.5 263.28-17.43 263.28-8.35 258.83-3.93 254.38 0.5 247.36 0.5ZM247.38-25.85Q244.98-25.85 243.36-23.65 241.73-21.45 241.73-17.48 241.73-13.5 243.28-11.38 244.83-9.25 247.36-9.25 249.88-9.25 251.46-11.4 253.03-13.55 253.03-17.55 253.03-21.55 251.41-23.7 249.78-25.85 247.38-25.85ZM276.83-12.05L276.83-0.7Q276.83 0.1 272.08 0.1L272.08 0.1Q267.28 0.1 267.28-0.65L267.28-0.65 267.28-33.25Q267.28-35 269.13-35L269.13-35 278.68-35Q291.83-35 291.83-24.75L291.83-24.75Q291.83-21.65 290.63-19.13 289.43-16.6 287.23-15.1L287.23-15.1 293.53-4.6Q293.13-3.4 290.93-1.85L290.93-1.85Q287.93 0.3 285.98 0.3 284.03 0.3 283.08-1.1L283.08-1.1 278.38-12.05 276.83-12.05ZM277.88-26.15L276.83-26.15 276.83-18.65 277.08-18.65Q281.83-18.65 281.83-22.6L281.83-22.6Q281.83-24.4 280.9-25.28 279.98-26.15 277.88-26.15L277.88-26.15ZM306.58-21.1L313.03-21.1Q313.98-21.1 313.98-17.6L313.98-17.6Q313.98-16.55 313.75-15.13 313.53-13.7 312.93-13.7L312.93-13.7 306.58-13.7 306.58-8.7 315.78-8.7Q316.63-8.7 316.93-6.5L316.93-6.5Q317.08-5.55 317.08-4.48 317.08-3.4 316.78-1.7 316.48 0 315.78 0L315.78 0 298.68 0Q296.78 0 296.78-1.55L296.78-1.55 296.78-33.7Q296.78-35 297.93-35L297.93-35 315.83-35Q316.88-35 316.88-30.58 316.88-26.15 315.83-26.15L315.83-26.15 306.58-26.15 306.58-21.1Z" opacity="1" transform="matrix(1,0,0,1,0,0)" fill="#ea9937" class="undefined-text-0" data-fill-palette-color="primary" id="text-0"></path></svg></g></svg></g></svg></g></svg></g><g transform="matrix(1,0,0,1,164.3268251470623,0)"><svg viewBox="0 0 68.84394970587533 62.57150328928515" height="62.57150328928515" width="68.84394970587533"><g><svg xmlns:x="http://ns.adobe.com/Extensibility/1.0/" xmlns:i="http://ns.adobe.com/AdobeIllustrator/10.0/" xmlns:graph="http://ns.adobe.com/Graphs/1.0/" xmlns="http://www.w3.org/2000/svg" xmlns:xlink="http://www.w3.org/1999/xlink" xmlns:a="http://ns.adobe.com/AdobeSVGViewerExtensions/3.0/" version="1.1" x="0" y="0" viewBox="4.5 8.600000381469727 90 81.80000305175781" enable-background="new 0 0 100 100" xml:space="preserve" height="62.57150328928515" width="68.84394970587533" class="icon-icon-0" data-fill-palette-color="accent" id="icon-0"><rect x="54.7" y="65.1" width="3" height="5" fill="#ea9937" data-fill-palette-color="accent"></rect><path d="M81.3 13.7L81.3 13.7V8.6H18.2v5.1l0 0L4.5 34.4c0 0 0 4 0 4.2 0 3.5 3.7 6.4 8.5 6.4s9.4-2.9 9.4-6.4v-4.2l9.7-20.6h11.2l-3 20.6c0 0 0 3.7 0 4.2l0 0c0 3.5 3.6 6.4 8.5 6.4 4.9 0 9.4-2.9 9.4-6.4v-4.2l-3.2-20.6h12.1l9.2 20.6v4.2c0 0.3 0 0.5 0.1 0.8l0 0c0.6 3.1 4.8 5.6 9.3 5.6 4.9 0 8.5-2.9 8.5-6.4 0-0.2 0-4.2 0-4.2L81.3 13.7z" fill="#ea9937" data-fill-palette-color="accent"></path><rect x="41.6" y="65.1" width="3" height="5" fill="#ea9937" data-fill-palette-color="accent"></rect><path d="M76.9 43.4C75 45.6 71.8 47 68.2 47c-3.8 0-7.3-1.5-9.4-3.7-2.2 2.2-5.6 3.7-9.5 3.7-3.6 0-6.8-1.4-8.6-3.6C38.5 45.5 35 47 31.2 47c-3.6 0-6.8-1.4-8.7-3.6-1.1 1.1-2.6 2.1-4.2 2.7v39.2h41.3v-5.5h-8.3V54.1h8.2v-2.3h21.9v-5.6C79.6 45.6 78 44.6 76.9 43.4zM48.6 79.7H31.2V54.1h17.4V79.7z" fill="#ea9937" data-fill-palette-color="accent"></path><path d="M61.5 53.9v36.5h4.9v-4.8h23.1v4.6h5V53.9l-33 0.1V53.9zM81.1 72.9c-9.4 3.6-14.9 4.2-16 1.6-1.1-2.4 1.2-4.8 2.1-5.4 1.5-1 2.7-1 3.9-0.9 0.9 0.1 2.2 0.4 3.3 1.3l1.1-0.5c-0.6-1.2-2.3-2.1-4.2-2.2 0 0 0.5-1.3 3.5-2.5 1.6-0.6 3.6-1.2 4.9-0.8 1 0.3 2.7 0.9 3.4 2.8l1-0.5c-0.6-1.5-1.4-2.1-2.7-2.8 0 0 0.1-0.6 3.7-0.6 3.4 0 5.5 1.9 5.7 3.1C91.1 68 90 69.5 81.1 72.9z" fill="#ea9937" data-fill-palette-color="accent"></path></svg></g></svg></g><g></g></svg></g></svg><rect width="395.52" height="132.64455148032553" fill="none" stroke="none" visibility="hidden"></rect></g></svg></g></svg>