<svg xmlns="http://www.w3.org/2000/svg" viewBox="0 0 143.9 130.79"><defs><style>.cls-1{fill:#ea9937;}</style></defs><g id="Слой_2" data-name="Слой 2"><g id="icon-0"><g id="tight-bounds"><rect class="cls-1" x="80.26" y="90.34" width="4.8" height="7.99"/><path class="cls-1" d="M122.79,8.15h0V0H21.9V8.15h0L0,41.25V48C0,53.56,5.92,58.2,13.59,58.2s15-4.64,15-10.23V41.25L44.13,8.31H62l-4.8,32.94V48h0c0,5.59,5.76,10.23,13.59,10.23s15-4.64,15-10.23V41.25L80.74,8.31h19.35L114.8,41.25V48a3.52,3.52,0,0,0,.16,1.28h0c1,5,7.67,9,14.87,9,7.83,0,13.59-4.64,13.59-10.23V41.25Z"/><rect class="cls-1" x="59.32" y="90.34" width="4.8" height="7.99"/><path class="cls-1" d="M115.76,55.64c-3,3.52-8.16,5.76-13.91,5.76-6.08,0-11.67-2.4-15-5.92A21.5,21.5,0,0,1,71.63,61.4c-5.76,0-10.87-2.24-13.75-5.76A22.42,22.42,0,0,1,42.69,61.4c-5.76,0-10.87-2.24-13.91-5.76A19.44,19.44,0,0,1,22.06,60v62.67h66v-8.79H74.83V72.75H87.94V69.07h35V60.12A17.3,17.3,0,0,1,115.76,55.64Zm-45.25,58H42.69V72.75H70.51Z"/><path class="cls-1" d="M91.14,72.43v58.36H99v-7.68H135.9v7.36h8v-58l-52.76.16Zm31.33,30.38c-15,5.75-23.82,6.71-25.58,2.56-1.76-3.84,1.92-7.68,3.36-8.64a8.73,8.73,0,0,1,6.24-1.44,10.1,10.1,0,0,1,5.27,2.08l1.76-.8c-1-1.92-3.68-3.36-6.71-3.52,0,0,.79-2.07,5.59-4,2.56-1,5.76-1.92,7.84-1.28,1.59.48,4.31,1.44,5.43,4.48l1.6-.8c-1-2.4-2.24-3.36-4.32-4.48,0,0,.16-1,5.92-1,5.44,0,8.79,3,9.11,5C138.46,95,136.7,97.37,122.47,102.81Z"/></g></g></g></svg>